<?xml version="1.0" standalone="no"?>
<!DOCTYPE svg PUBLIC "-//W3C//DTD SVG 20010904//EN"
 "http://www.w3.org/TR/2001/REC-SVG-20010904/DTD/svg10.dtd">
<svg version="1.0" xmlns="http://www.w3.org/2000/svg"
 width="493.000000pt" height="445.000000pt" viewBox="0 0 493.000000 445.000000"
 preserveAspectRatio="xMidYMid meet">

<g transform="translate(0.000000,445.000000) scale(0.100000,-0.100000)"
fill="#000000" stroke="none">
<path d="M2650 3491 l0 -591 -360 0 -360 0 0 586 0 587 -52 -7 c-118 -16 -401
-86 -533 -134 -239 -85 -527 -302 -695 -524 -63 -83 -151 -229 -195 -322 -50
-109 -113 -318 -134 -452 -46 -283 -12 -584 95 -843 139 -337 273 -525 506
-712 135 -108 374 -238 503 -274 160 -44 353 -88 473 -109 l32 -5 0 589 0 590
360 0 360 0 0 -588 0 -589 118 19 c200 32 398 87 658 183 105 39 404 183 441
213 22 17 22 19 24 387 l2 370 -312 3 -311 2 0 515 0 515 313 2 c242 2 312 6
311 16 -1 6 -2 173 -3 370 l-1 357 -67 40 c-255 152 -759 329 -1063 374 -41 7
-83 14 -92 17 -17 5 -18 -27 -18 -585z m-1314 -185 c191 -41 356 -195 425
-396 33 -98 38 -252 10 -353 -19 -70 -58 -160 -86 -196 -121 -159 -277 -241
-462 -241 -140 0 -133 -10 -133 181 0 149 1 161 18 154 106 -41 222 -22 297
50 67 65 88 120 83 225 -3 55 -11 97 -22 119 -24 46 -92 110 -141 132 -50 23
-149 25 -199 4 -50 -21 -123 -96 -149 -153 -22 -47 -22 -54 -25 -702 -1 -360
-2 -666 -2 -679 0 -21 -3 -23 -32 -17 -93 19 -186 95 -231 189 l-27 58 0 558
c0 615 1 623 63 746 86 172 188 261 357 312 86 25 168 28 256 9z"/>
<path d="M3350 2385 l0 -425 200 0 200 0 0 310 0 310 140 0 140 0 0 -310 0
-310 200 0 200 0 0 425 0 425 -540 0 -540 0 0 -425z"/>
</g>
</svg>
