<?xml version="1.0" encoding="utf-8"?>
<!-- Generator: Adobe Illustrator 23.1.0, SVG Export Plug-In . SVG Version: 6.00 Build 0)  -->
<svg version="1.1" id="Слой_1" xmlns="http://www.w3.org/2000/svg" xmlns:xlink="http://www.w3.org/1999/xlink" x="0px" y="0px"
	 viewBox="0 0 50 50.1" style="enable-background:new 0 0 50 50.1;" xml:space="preserve">
<style type="text/css">
	.st0{fill-rule:evenodd;clip-rule:evenodd;fill:url(#Path_195_1_);}
	.st1{fill-rule:evenodd;clip-rule:evenodd;fill:#FF3736;}
</style>
<g id="Иконка" transform="translate(-1052 -570)">
	<linearGradient id="Path_195_1_" gradientUnits="userSpaceOnUse" x1="1076.9998" y1="569.8823" x2="1076.9998" y2="620.0005">
		<stop  offset="0" style="stop-color:#3584BF"/>
		<stop  offset="1" style="stop-color:#22BED8"/>
	</linearGradient>
	<path id="Path_195" class="st0" d="M1080.1,615.2c-0.3-0.3-0.8-0.4-1.2-0.1c-0.3,0.3-0.4,0.8-0.1,1.2c0,0,0,0,0,0h0.1l3.3,3.3
		c0.3,0.3,0.9,0.3,1.2,0c0.3-0.3,0.3-0.8,0-1.2L1080.1,615.2z M1077,610c-0.5,0-0.8,0.4-0.8,0.8l0,0l0,0v2.2l-5.6,5.6
		c-0.3,0.3-0.3,0.9,0,1.2c0.3,0.3,0.8,0.4,1.2,0.1c0,0,0,0,0,0l0.1,0l5.8-5.8c0.2-0.2,0.2-0.4,0.2-0.6v-2.5
		C1077.9,610.4,1077.5,610,1077,610C1077,610,1077,610,1077,610z M1102,572.5v3.3c0,0.5-0.4,0.8-0.8,0.8l0,0h-0.8v27.5
		c0,2.3-1.9,4.2-4.2,4.2h-38.3c-2.3,0-4.2-1.9-4.2-4.2v-25c0-0.5,0.3-0.9,0.8-0.9c0.5,0,0.9,0.3,0.9,0.8c0,0,0,0,0,0.1v25.1
		c0,1.4,1.1,2.5,2.5,2.5h38.3c1.4,0,2.5-1.1,2.5-2.5v-28.3c0-0.4,0.4-0.8,0.8-0.8h0.8v-1.7h-46.7v1.7h42.5c0.5,0,0.8,0.4,0.8,0.9
		c0,0,0,0,0,0c0,0.4-0.4,0.8-0.8,0.8h-43.3c-0.5,0-0.8-0.4-0.8-0.8c0,0,0,0,0,0l0,0v-3.3c0-0.5,0.4-0.8,0.8-0.8h23.3v-0.8
		c0-0.5,0.4-0.8,0.8-0.8c0.5,0,0.8,0.4,0.8,0.8c0,0,0,0,0,0v0.8h23.3C1101.6,571.7,1102,572,1102,572.5
		C1102,572.5,1102,572.5,1102,572.5z"/>
	<path id="Path_196" class="st1" d="M1069.5,588.9c0-0.8-0.7-1.5-1.5-1.5c-0.8,0-1.5,0.7-1.5,1.5s0.7,1.5,1.5,1.5
		c0.4,0,0.8-0.2,1.1-0.4C1069.4,589.7,1069.5,589.3,1069.5,588.9z M1074.8,584.4h-10.5c-0.4,0-0.8,0.3-0.8,0.8l0,0v9
		c0,0.4,0.3,0.8,0.8,0.8h1.5c0.4,0,0.8-0.3,0.8-0.7c0-0.4-0.3-0.8-0.7-0.8c-0.1,0-0.1,0-0.2,0h-0.8v-7.5h9v6.5l-1.7-1.7
		c-0.3-0.3-0.8-0.3-1.1,0l0,0l-3,3c-0.3,0.3-0.3,0.8,0,1.1c0.3,0.3,0.8,0.3,1.1,0c0,0,0,0,0,0l0,0l2.5-2.5l2.5,2.5
		c0.3,0.3,0.8,0.3,1.1,0c0.1-0.1,0.2-0.3,0.2-0.5v-9C1075.5,584.7,1075.2,584.4,1074.8,584.4L1074.8,584.4z M1089.8,597.9h-6
		c-0.4,0-0.8,0.3-0.8,0.8c0,0.4,0.3,0.8,0.8,0.8h6c0.4,0,0.8-0.3,0.8-0.8C1090.5,598.3,1090.2,597.9,1089.8,597.9z M1079.3,594.9h9
		c0.4,0,0.7-0.4,0.7-0.8c0-0.4-0.3-0.6-0.7-0.7h-9c-0.4,0-0.7,0.4-0.7,0.8C1078.7,594.6,1078.9,594.9,1079.3,594.9z M1086.8,584.4
		h-7.5c-0.4,0-0.8,0.3-0.8,0.8c0,0.4,0.3,0.8,0.8,0.8h7.5c0.4,0,0.8-0.3,0.8-0.8C1087.5,584.7,1087.1,584.4,1086.8,584.4
		L1086.8,584.4z M1089.8,588.9h-4.5c-0.4,0-0.8,0.3-0.8,0.8c0,0.4,0.3,0.8,0.8,0.8h4.5c0.4,0,0.8-0.3,0.8-0.8
		C1090.5,589.3,1090.1,588.9,1089.8,588.9L1089.8,588.9z M1079.3,590.4h3c0.4,0,0.8-0.3,0.8-0.7c0-0.4-0.3-0.8-0.7-0.8
		c-0.1,0-0.1,0-0.2,0h-3c-0.4,0-0.7,0.4-0.7,0.8C1078.7,590.1,1078.9,590.4,1079.3,590.4z M1075.5,598.7c0,0.4,0.3,0.7,0.8,0.8h4.5
		c0.4,0,0.7-0.4,0.7-0.8c0-0.4-0.3-0.6-0.7-0.7h-4.5C1075.8,597.9,1075.5,598.3,1075.5,598.7z M1064.3,599.4h9
		c0.4,0,0.7-0.4,0.7-0.8c0-0.4-0.3-0.6-0.7-0.7h-9c-0.4,0-0.8,0.3-0.8,0.7c0,0.4,0.3,0.8,0.7,0.8
		C1064.2,599.4,1064.2,599.4,1064.3,599.4z"/>
</g>
</svg>
