<?xml version="1.0" encoding="utf-8"?>
<!-- Generator: Adobe Illustrator 23.1.0, SVG Export Plug-In . SVG Version: 6.00 Build 0)  -->
<svg version="1.1" id="Иконка" xmlns="http://www.w3.org/2000/svg" xmlns:xlink="http://www.w3.org/1999/xlink" x="0px"
	 y="0px" viewBox="0 0 50 46.2" style="enable-background:new 0 0 50 46.2;" xml:space="preserve">
<style type="text/css">
	.st0{fill:#FF3736;}
	.st1{fill:none;}
	.st2{fill:url(#Path_198_1_);}
</style>
<path id="Path_197" class="st0" d="M22.9,37.8c-0.4,0-0.7-0.4-0.7-0.8c0-0.4,0.3-0.6,0.7-0.7h13.7c0.4,0,0.8,0.3,0.8,0.8l0,0
	c0,0.4-0.3,0.7-0.8,0.8H22.9z M12.3,37.8c-0.4,0-0.7-0.4-0.7-0.8c0-0.4,0.3-0.6,0.7-0.7h8c0.4,0,0.8,0.3,0.8,0.8l0,0
	c0,0.4-0.3,0.7-0.8,0.8H12.3z M31.5,34c-0.4,0-0.8-0.3-0.8-0.8c0-0.4,0.3-0.8,0.8-0.8h5.1c0.4,0,0.8,0.3,0.8,0.8
	c0,0.4-0.3,0.8-0.8,0.8H31.5z M18.1,34c-0.4,0-0.8-0.3-0.8-0.8l0,0c0-0.4,0.3-0.8,0.8-0.8h10.9c0.4,0,0.8,0.3,0.8,0.7
	c0,0.4-0.3,0.8-0.7,0.8c-0.1,0-0.1,0-0.2,0H18.1z M12.3,34c-0.4,0-0.8-0.3-0.8-0.8l0,0c0-0.4,0.3-0.8,0.8-0.8h3.2
	c0.4,0,0.8,0.3,0.8,0.8c0,0.4-0.3,0.8-0.8,0.8H12.3z M34.1,30.4c0,0-2.4-1.2-3.3-1.7c-0.3-0.1-0.2-0.1-0.5,0l-3.3,1.6
	c-0.4,0.2-0.4,0.1-0.4-0.3v-8.3c-2.4-1.3-3.8-3.8-3.8-6.5c-0.2-4.2,3.1-7.7,7.3-7.9s7.7,3.1,7.9,7.3c0,0.2,0,0.4,0,0.6
	c0,2.7-1.5,5.1-3.8,6.5v8.7C34.3,30.5,34.2,30.5,34.1,30.4L34.1,30.4z M28.7,27.1c0,0.2,0,0.2,0.1,0.1l1.6-0.8
	c0.3-0.1,0.2-0.1,0.5,0c0,0,1,0.5,1.4,0.8c0.2,0.1,0.2,0.1,0.2-0.2v-4.3c-0.6,0.1-1.3,0.2-1.9,0.2c-0.6,0-1.3,0-1.9-0.2V27.1z
	 M24.9,15.3c0,3.1,2.4,5.6,5.5,5.7h0.2c3.1,0.1,5.6-2.4,5.7-5.5c0,0,0,0,0,0v-0.2c0.1-3.1-2.4-5.6-5.5-5.7h-0.2
	c-3.1-0.1-5.6,2.4-5.7,5.5C24.8,15.2,24.8,15.2,24.9,15.3L24.9,15.3z M12.3,30.2c-0.4,0-0.7-0.4-0.7-0.8c0-0.4,0.3-0.6,0.7-0.7h8
	c0.4,0,0.8,0.3,0.8,0.8l0,0c0,0.4-0.3,0.7-0.8,0.8H12.3z M12.3,26.3c-0.4,0-0.7-0.3-0.8-0.8l0,0c0-0.4,0.3-0.8,0.8-0.8h11.8
	c0.4,0,0.8,0.3,0.8,0.7s-0.3,0.8-0.7,0.8c-0.1,0-0.1,0-0.2,0H12.3z M15.5,22.6h-3.2c-0.4,0-0.8-0.3-0.8-0.8l0,0
	c0-0.4,0.3-0.8,0.8-0.8h11c0.5,0.6,1,1.1,1.6,1.5H15.5z M15.5,18.8h-3.2c-0.4,0-0.8-0.3-0.8-0.8s0.3-0.8,0.8-0.8h9.1
	c0.1,0.5,0.3,1,0.5,1.5H15.5z M15.5,15h-3.2c-0.4,0-0.8-0.3-0.8-0.8l0,0c0-0.4,0.3-0.8,0.8-0.8h9c-0.1,0.5-0.2,1-0.2,1.5L15.5,15z"
	/>
<path id="Rectangle_77" class="st1" d="M4.8,0h40.3C47.8,0,50,2.2,50,4.8v36.5c0,2.7-2.1,4.8-4.8,4.8H4.8C2.2,46.1,0,44,0,41.3V4.8
	C0,2.2,2.2,0,4.8,0z"/>
<linearGradient id="Path_198_1_" gradientUnits="userSpaceOnUse" x1="25" y1="-5.882353e-02" x2="25" y2="46.3583">
	<stop  offset="0" style="stop-color:#3584BF"/>
	<stop  offset="1" style="stop-color:#22BED8"/>
</linearGradient>
<path id="Path_198" class="st2" d="M45.2,46.2H4.8C2.2,46.2,0,44,0,41.3V4.8C0,2.2,2.2,0,4.8,0h40.3C47.8,0,50,2.2,50,4.8v36.5
	C50,44,47.8,46.2,45.2,46.2z M4.8,2C3.3,2,2,3.3,2,4.8c0,0,0,0,0,0v36.5c0,1.6,1.3,2.8,2.8,2.8c0,0,0,0,0,0h40.3
	c1.6,0,2.8-1.3,2.8-2.8l0,0V4.8C48,3.3,46.7,2,45.2,2l0,0H4.8z"/>
</svg>
