<?xml version="1.0" encoding="utf-8"?>
<!-- Generator: Adobe Illustrator 23.1.0, SVG Export Plug-In . SVG Version: 6.00 Build 0)  -->
<svg version="1.1" id="Слой_1" xmlns="http://www.w3.org/2000/svg" xmlns:xlink="http://www.w3.org/1999/xlink" x="0px" y="0px"
	 viewBox="0 0 50 50.3" style="enable-background:new 0 0 50 50.3;" xml:space="preserve">
<style type="text/css">
	.st0{fill-rule:evenodd;clip-rule:evenodd;fill:#FF3736;}
	.st1{fill:url(#SVGID_1_);}
	.st2{fill:url(#SVGID_2_);}
	.st3{fill:url(#SVGID_3_);}
	.st4{fill:url(#SVGID_4_);}
	.st5{fill:url(#SVGID_5_);}
	.st6{fill:url(#SVGID_6_);}
	.st7{fill:url(#SVGID_7_);}
	.st8{fill:url(#SVGID_8_);}
</style>
<g id="Иконка" transform="translate(2 -10)">
	<path id="Path_205" class="st0" d="M35.5,46.8H16.3c-0.5-0.2-0.8-0.7-0.7-1.2c0.1-0.3,0.4-0.6,0.7-0.7h19.2
		c0.5,0.2,0.8,0.7,0.7,1.2C36.1,46.5,35.8,46.7,35.5,46.8z M37.4,41H16.3c-0.5-0.2-0.8-0.7-0.7-1.2c0.1-0.3,0.4-0.6,0.7-0.7h21.1
		c0.5-0.2,1.1,0.1,1.2,0.7c0.2,0.5-0.1,1.1-0.7,1.2C37.8,41.1,37.6,41.1,37.4,41z M15.3,34.3c0-0.6,0.4-1,1-1h17.3
		c0.5-0.2,1.1,0.1,1.2,0.7c0.2,0.5-0.1,1.1-0.7,1.2c-0.2,0.1-0.4,0.1-0.6,0H16.3C15.8,35.2,15.4,34.8,15.3,34.3z M15.3,28.5
		c0-0.6,0.4-1,1-1h19.2c0.5,0.2,0.8,0.7,0.7,1.2c-0.1,0.3-0.4,0.6-0.7,0.7H16.3C15.8,29.4,15.4,29,15.3,28.5L15.3,28.5z M11.5,45.9
		c0,0.6-0.4,1-1,1H8.6c-0.5-0.2-0.8-0.7-0.7-1.2C8,45.3,8.3,45,8.6,44.9h1.9C11,45,11.4,45.4,11.5,45.9z M11.5,40.1c0,0.6-0.4,1-1,1
		H8.6c-0.5-0.2-0.8-0.7-0.7-1.2c0.1-0.3,0.4-0.6,0.7-0.7h1.9C11,39.2,11.4,39.6,11.5,40.1z M11.5,34.3c0,0.6-0.4,1-1,1H8.6
		c-0.5,0.2-1.1-0.1-1.2-0.7c-0.2-0.5,0.1-1.1,0.7-1.2c0.2-0.1,0.4-0.1,0.6,0h1.9C11,33.4,11.4,33.8,11.5,34.3L11.5,34.3z M11.5,28.5
		c0,0.6-0.4,1-1,1H8.6c-0.5-0.2-0.8-0.7-0.7-1.2C8,28,8.3,27.7,8.6,27.6h1.9C11,27.6,11.4,28,11.5,28.5z"/>
	<g>
		<linearGradient id="SVGID_1_" gradientUnits="userSpaceOnUse" x1="27.8098" y1="9.8824" x2="27.8098" y2="60.5916">
			<stop  offset="0" style="stop-color:#3584BF"/>
			<stop  offset="1" style="stop-color:#22BED8"/>
		</linearGradient>
		<path class="st1" d="M24.9,19c0,1.6,1.3,2.9,2.9,2.9c1.6,0,2.9-1.3,2.9-2.9c0-1.2-0.8-2.3-1.9-2.8v-5c-0.2-0.5-0.7-0.8-1.2-0.7
			c-0.3,0.1-0.6,0.4-0.7,0.7v5C25.7,16.7,25,17.7,24.9,19L24.9,19z M27.8,18c0.6,0,1,0.4,1,1s-0.4,1-1,1s-1-0.4-1-1S27.3,18,27.8,18
			z"/>
		<linearGradient id="SVGID_2_" gradientUnits="userSpaceOnUse" x1="37.4297" y1="9.8824" x2="37.4297" y2="60.5916">
			<stop  offset="0" style="stop-color:#3584BF"/>
			<stop  offset="1" style="stop-color:#22BED8"/>
		</linearGradient>
		<path class="st2" d="M34.5,19c0,1.6,1.3,2.9,2.9,2.9c1.6,0,2.9-1.3,2.9-2.9c0-1.2-0.8-2.4-1.9-2.8v-5c-0.2-0.5-0.7-0.8-1.2-0.7
			c-0.3,0.1-0.6,0.4-0.7,0.7v5C35.3,16.7,34.6,17.7,34.5,19L34.5,19z M37.4,18c0.6,0,1,0.4,1,1s-0.4,1-1,1c-0.6,0-1-0.4-1-1
			S36.9,18,37.4,18z"/>
		<linearGradient id="SVGID_3_" gradientUnits="userSpaceOnUse" x1="32.7951" y1="9.8824" x2="32.7951" y2="60.5916">
			<stop  offset="0" style="stop-color:#3584BF"/>
			<stop  offset="1" style="stop-color:#22BED8"/>
		</linearGradient>
		<path class="st3" d="M31.7,16h2c0.2,0.1,0.4,0.1,0.6,0c0.5-0.2,0.8-0.7,0.7-1.2c-0.2-0.5-0.7-0.8-1.2-0.7h-1.9c-0.6,0-1,0.4-1,1
			C30.7,15.6,31.1,16,31.7,16z"/>
		<linearGradient id="SVGID_4_" gradientUnits="userSpaceOnUse" x1="23.1801" y1="9.8824" x2="23.1801" y2="60.5916">
			<stop  offset="0" style="stop-color:#3584BF"/>
			<stop  offset="1" style="stop-color:#22BED8"/>
		</linearGradient>
		<path class="st4" d="M22,16h2c0.2,0.1,0.4,0.1,0.6,0c0.5-0.2,0.8-0.7,0.7-1.2c-0.2-0.5-0.7-0.8-1.2-0.7h-1.9c-0.6,0-1,0.4-1,1
			C21.1,15.6,21.5,16,22,16z"/>
		<linearGradient id="SVGID_5_" gradientUnits="userSpaceOnUse" x1="8.5798" y1="9.8824" x2="8.5798" y2="60.5916">
			<stop  offset="0" style="stop-color:#3584BF"/>
			<stop  offset="1" style="stop-color:#22BED8"/>
		</linearGradient>
		<path class="st5" d="M5.7,18.9L5.7,18.9c0,1.6,1.3,2.9,2.9,3c1.6,0,2.9-1.3,2.9-2.9c0-1.2-0.8-2.3-1.9-2.8v-5
			c0.2-0.5-0.1-1.1-0.7-1.2c-0.5-0.2-1.1,0.1-1.2,0.7c-0.1,0.2-0.1,0.4,0,0.6v5C6.5,16.7,5.7,17.7,5.7,18.9z M8.6,18
			c0.6,0,1,0.4,1,1s-0.4,1-1,1c-0.6,0-1-0.4-1-1S8,18,8.6,18z"/>
		<linearGradient id="SVGID_6_" gradientUnits="userSpaceOnUse" x1="23" y1="9.8824" x2="23" y2="60.5916">
			<stop  offset="0" style="stop-color:#3584BF"/>
			<stop  offset="1" style="stop-color:#22BED8"/>
		</linearGradient>
		<path class="st6" d="M43.2,14.1L43.2,14.1l-1.9,0c-0.5,0.2-0.8,0.7-0.7,1.2c0.1,0.3,0.4,0.6,0.7,0.7h1.9c1.5,0.1,2.8,1.3,2.9,2.9
			v34.6H-0.1V18.9c0.1-1.5,1.4-2.7,2.9-2.9h1.9c0.5,0.2,1.1-0.1,1.2-0.7c0.2-0.5-0.1-1.1-0.7-1.2c-0.2-0.1-0.4-0.1-0.6,0H2.8
			c-2.6,0.1-4.7,2.2-4.8,4.8v36.5c0.1,2.6,2.2,4.7,4.8,4.8h40.4c2.6-0.1,4.7-2.2,4.8-4.8V18.9C47.9,16.3,45.8,14.3,43.2,14.1z
			 M43.2,58.4H2.8C1.2,58.3,0,57-0.1,55.5h46.2C46,57,44.7,58.2,43.2,58.4z"/>
		<linearGradient id="SVGID_7_" gradientUnits="userSpaceOnUse" x1="13.5651" y1="9.8824" x2="13.5651" y2="60.5916">
			<stop  offset="0" style="stop-color:#3584BF"/>
			<stop  offset="1" style="stop-color:#22BED8"/>
		</linearGradient>
		<path class="st7" d="M12.4,16h2c0.2,0.1,0.4,0.1,0.6,0c0.5-0.2,0.8-0.7,0.7-1.2s-0.7-0.8-1.2-0.7h-1.9c-0.6,0-1,0.4-1,1
			C11.5,15.6,11.9,16,12.4,16z"/>
		<linearGradient id="SVGID_8_" gradientUnits="userSpaceOnUse" x1="18.1997" y1="9.8824" x2="18.1997" y2="60.5916">
			<stop  offset="0" style="stop-color:#3584BF"/>
			<stop  offset="1" style="stop-color:#22BED8"/>
		</linearGradient>
		<path class="st8" d="M15.3,18.9L15.3,18.9c0,1.6,1.3,2.9,2.9,3c1.6,0,2.9-1.3,2.9-2.9c0-1.2-0.8-2.4-1.9-2.8v-5
			c0.2-0.5-0.1-1.1-0.7-1.2c-0.5-0.2-1.1,0.1-1.2,0.7c-0.1,0.2-0.1,0.4,0,0.6v5C16.1,16.7,15.3,17.7,15.3,18.9z M18.2,18
			c0.6,0,1,0.4,1,1s-0.4,1-1,1s-1-0.4-1-1S17.6,18,18.2,18z"/>
	</g>
</g>
</svg>
